<svg width="28" height="18" viewBox="0 0 28 18" fill="none" xmlns="http://www.w3.org/2000/svg">
<g clip-path="url(#clip0_2_45)">
<path d="M0 7.326C0 6.342 0.298667 5.394 0.896 4.482C1.49333 3.57 2.30533 2.79 3.332 2.142C4.35867 1.494 5.572 0.978 6.972 0.594C8.372 0.21 9.84667 0.012 11.396 0C12.9453 0 14.42 0.198 15.82 0.594C17.22 0.99 18.4333 1.506 19.46 2.142C20.4867 2.778 21.2987 3.558 21.896 4.482C22.4933 5.406 22.792 6.354 22.792 7.326C22.792 8.682 22.2133 9.96 21.056 11.16L27.244 15.12C27.748 15.456 28 15.858 28 16.326C28 16.794 27.748 17.19 27.244 17.514C26.74 17.838 26.1147 18 25.368 18C24.6213 18 24.0053 17.838 23.52 17.514L17.36 13.554C15.4933 14.286 13.5053 14.652 11.396 14.652C9.84667 14.652 8.372 14.46 6.972 14.076C5.572 13.692 4.35867 13.17 3.332 12.51C2.30533 11.85 1.49333 11.076 0.896 10.188C0.298667 9.3 0 8.346 0 7.326ZM3.5 7.326C3.5 8.25 3.85467 9.102 4.564 9.882C5.27333 10.662 6.23467 11.274 7.448 11.718C8.66133 12.162 9.97733 12.39 11.396 12.402C12.46 12.402 13.4773 12.27 14.448 12.006C15.4187 11.742 16.2587 11.382 16.968 10.926C17.6773 10.47 18.2373 9.93 18.648 9.306C19.0587 8.682 19.2733 8.022 19.292 7.326C19.3107 6.63 19.096 5.97 18.648 5.346C18.2 4.722 17.64 4.188 16.968 3.744C16.296 3.3 15.456 2.94 14.448 2.664C13.44 2.388 12.4227 2.25 11.396 2.25C9.97733 2.25 8.66133 2.478 7.448 2.934C6.23467 3.39 5.27333 4.008 4.564 4.788C3.85467 5.568 3.5 6.414 3.5 7.326Z" fill="#274A21"/>
</g>
<defs>
<clipPath id="clip0_2_45">
<rect width="28" height="18" fill="white"/>
</clipPath>
</defs>
</svg>
