<svg width="45" height="31" viewBox="0 0 45 31" fill="none" xmlns="http://www.w3.org/2000/svg">
<g clip-path="url(#clip0_1_31)">
<path d="M14.5825 19.9557L41.0387 18.6537L45.2462 7.06358H11.8787L11.3444 4.95817C11.2363 4.5476 10.94 4.17172 10.4989 3.88576C10.0578 3.59979 9.49519 3.41882 8.89375 3.36942L4.21375 3L4 4.28392L8.68188 4.65333C8.88228 4.66971 9.06973 4.73002 9.21658 4.82538C9.36344 4.92073 9.46192 5.04607 9.4975 5.18292L13.06 19.2014L11.5112 20.8818C11.2771 21.1356 11.1321 21.4235 11.0878 21.7227C11.0435 22.0219 11.1011 22.324 11.256 22.6051C11.4109 22.8863 11.6589 23.1387 11.9802 23.3422C12.3015 23.5458 12.6873 23.6949 13.1069 23.7777V23.9754C12.4814 24.1277 11.9542 24.4275 11.6185 24.8217C11.2828 25.2159 11.1602 25.6792 11.2724 26.1297C11.3846 26.5802 11.7243 26.9888 12.2316 27.2834C12.7388 27.578 13.3809 27.7396 14.0444 27.7396C14.7078 27.7396 15.3499 27.578 15.8572 27.2834C16.3644 26.9888 16.7042 26.5802 16.8164 26.1297C16.9286 25.6792 16.806 25.2159 16.4703 24.8217C16.1346 24.4275 15.6074 24.1277 14.9819 23.9754V23.8552H36.5444C36.6688 23.8552 36.7919 23.8723 36.9066 23.9056C37.0212 23.9389 37.125 23.9876 37.2119 24.049C36.617 24.2424 36.1391 24.5733 35.8613 24.984C35.5835 25.3948 35.5231 25.8596 35.6908 26.2979C35.8584 26.7361 36.2435 27.1201 36.7791 27.3831C37.3148 27.6462 37.9672 27.7718 38.6232 27.7382C39.2793 27.7045 39.8975 27.5137 40.3706 27.1988C40.8438 26.884 41.142 26.465 41.2136 26.0145C41.2851 25.564 41.1255 25.1104 40.7624 24.7325C40.3993 24.3547 39.8556 24.0763 39.2256 23.9457C39.0536 23.5474 38.6999 23.1979 38.217 22.949C37.734 22.7001 37.1475 22.5649 36.5444 22.5636H13.8869C13.719 22.5636 13.5542 22.5325 13.4097 22.4736C13.2652 22.4147 13.1463 22.3301 13.0654 22.2288C12.9846 22.1274 12.9447 22.0129 12.95 21.8973C12.9554 21.7817 13.0056 21.6692 13.0956 21.5716L14.5825 19.9557ZM38.4194 26.4386C38.234 26.4386 38.0527 26.4007 37.8985 26.3297C37.7444 26.2588 37.6242 26.1579 37.5532 26.0399C37.4823 25.9219 37.4637 25.792 37.4999 25.6668C37.5361 25.5415 37.6253 25.4264 37.7565 25.3361C37.8876 25.2458 38.0546 25.1842 38.2365 25.1593C38.4183 25.1344 38.6068 25.1472 38.7781 25.1961C38.9494 25.245 39.0959 25.3277 39.1989 25.4339C39.3019 25.5402 39.3569 25.665 39.3569 25.7927C39.3569 25.964 39.2581 26.1283 39.0823 26.2494C38.9065 26.3705 38.668 26.4386 38.4194 26.4386ZM14.0444 26.4386C13.859 26.4386 13.6777 26.4007 13.5235 26.3297C13.3694 26.2588 13.2492 26.1579 13.1782 26.0399C13.1073 25.9219 13.0887 25.792 13.1249 25.6668C13.1611 25.5415 13.2504 25.4264 13.3815 25.3361C13.5126 25.2458 13.6796 25.1842 13.8615 25.1593C14.0433 25.1344 14.2318 25.1472 14.4031 25.1961C14.5744 25.245 14.7209 25.3277 14.8239 25.4339C14.9269 25.5402 14.9819 25.665 14.9819 25.7927C14.9819 25.964 14.8831 26.1283 14.7073 26.2494C14.5315 26.3705 14.293 26.4386 14.0444 26.4386ZM42.8444 8.35525L39.55 17.4318L14.8225 18.6485L12.2069 8.35525H42.8444Z" fill="black"/>
</g>
<defs>
<clipPath id="clip0_1_31">
<rect width="45" height="31" fill="white"/>
</clipPath>
</defs>
</svg>
