<svg width="39" height="32" viewBox="0 0 39 32" fill="none" xmlns="http://www.w3.org/2000/svg">
<g clip-path="url(#clip0_1_34)">
<path d="M19.5 6.66669C18.2144 6.66669 16.9577 6.97948 15.8888 7.56552C14.8199 8.15155 13.9868 8.9845 13.4948 9.95904C13.0028 10.9336 12.8741 12.0059 13.1249 13.0405C13.3757 14.0751 13.9948 15.0254 14.9038 15.7713C15.8129 16.5171 16.971 17.0251 18.2319 17.2309C19.4928 17.4367 20.7997 17.331 21.9874 16.9274C23.1752 16.5237 24.1903 15.8401 24.9046 14.9631C25.6188 14.086 26 13.0549 26 12C26 10.5855 25.3152 9.22898 24.0962 8.22878C22.8772 7.22859 21.2239 6.66669 19.5 6.66669ZM19.5 14.6667C18.8572 14.6667 18.2289 14.5103 17.6944 14.2173C17.1599 13.9243 16.7434 13.5078 16.4974 13.0205C16.2514 12.5332 16.187 11.9971 16.3125 11.4798C16.4379 10.9625 16.7474 10.4873 17.2019 10.1144C17.6564 9.74146 18.2355 9.48749 18.866 9.38459C19.4964 9.2817 20.1499 9.33451 20.7437 9.53634C21.3376 9.73817 21.8452 10.08 22.2023 10.5185C22.5594 10.957 22.75 11.4726 22.75 12C22.75 12.7073 22.4076 13.3855 21.7981 13.8856C21.1886 14.3857 20.362 14.6667 19.5 14.6667Z" fill="black"/>
<path d="M19.5 1.33334C15.9647 1.33334 12.5087 2.19353 9.56919 3.80512C6.62966 5.41672 4.33858 7.70734 2.98566 10.3873C1.63275 13.0673 1.27876 16.0163 1.96847 18.8613C2.65818 21.7064 4.36061 24.3197 6.86047 26.3709C9.36034 28.4221 12.5454 29.8189 16.0128 30.3849C19.4802 30.9508 23.0742 30.6603 26.3405 29.5502C29.6067 28.4402 32.3984 26.5603 34.3625 24.1484C36.3267 21.7365 37.375 18.9008 37.375 16C37.3858 14.0715 36.9308 12.1603 36.0363 10.3769C35.1418 8.59347 33.8255 6.97312 32.1635 5.60943C30.5015 4.24574 28.5267 3.16574 26.3532 2.4318C24.1796 1.69786 21.8504 1.32452 19.5 1.33334V1.33334ZM9.58751 24.8C12.6331 23.4422 16.0343 22.7102 19.5 22.6667C22.9657 22.7102 26.3669 23.4422 29.4125 24.8C26.7206 26.8572 23.1787 28.001 19.5 28.001C15.8214 28.001 12.2794 26.8572 9.58751 24.8V24.8ZM31.6063 22.7333C27.9209 20.9901 23.7535 20.0492 19.5 20C15.2466 20.0492 11.0791 20.9901 7.39376 22.7333V22.7333C5.73834 20.7516 4.8596 18.4025 4.87501 16C4.87501 12.8174 6.41585 9.76517 9.15857 7.51473C11.9013 5.26429 15.6212 4.00001 19.5 4.00001C23.3788 4.00001 27.0987 5.26429 29.8414 7.51473C32.5842 9.76517 34.125 12.8174 34.125 16C34.1404 18.4025 33.2617 20.7516 31.6063 22.7333V22.7333Z" fill="black"/>
</g>
<defs>
<clipPath id="clip0_1_34">
<rect width="39" height="32" fill="white"/>
</clipPath>
</defs>
</svg>
